<?xml version="1.0" encoding="UTF-8" standalone="no"?>
<svg viewBox="0 0 365 285" xmlns="http://www.w3.org/2000/svg" xmlns:xlink="http://www.w3.org/1999/xlink">
<defs>
<linearGradient id="linearGradient2213">
<stop offset="0" stop-color="#fff" stop-opacity=".63265"/>
<stop offset="1" stop-color="#fff" stop-opacity="0"/>
</linearGradient>
<linearGradient gradientUnits="userSpaceOnUse" id="linearGradient1335" x1="411.14507" x2="169.52979" xlink:href="#linearGradient2213" y1="186.96185" y2="60.81141"/>
<radialGradient cx="393.96347" cy="425.17087" gradientTransform="matrix(.45363,5.094044e-2,-2.962504e-2,.26381,27.74702,60.7508)" gradientUnits="userSpaceOnUse" id="radialGradient1332" r="163.07687">
<stop offset="0" stop-color="#fff" stop-opacity=".54113"/>
<stop offset="1" stop-color="#fff" stop-opacity="0"/>
</radialGradient>
<radialGradient cx="181.06529" cy="278.112" gradientTransform="matrix(.33361,.3044,-.48717,.53393,161.2995,-83.63806)" gradientUnits="userSpaceOnUse" id="radialGradient1347" r="80.02594">
<stop offset="0" stop-color="#fff" stop-opacity=".82684"/>
<stop offset="1" stop-color="#fff" stop-opacity="0"/>
</radialGradient>
<radialGradient cx="262.36652" cy="369.1127" gradientTransform="matrix(.67346,.15314,-.1282,.56379,-17.1837,-96.51575)" gradientUnits="userSpaceOnUse" id="radialGradient1351" r="284.37408">
<stop offset="0" stop-color="#00abff"/>
<stop offset="1" stop-color="#0d0548"/>
</radialGradient>
<radialGradient cx="468.948" cy="509.05389" gradientTransform="matrix(.48992,1.907334e-2,-6.253919e-3,.16064,-7.95741,126.1673)" gradientUnits="userSpaceOnUse" id="radialGradient1338" r="85.75505" xlink:href="#linearGradient2213"/>
<radialGradient cx="322.25385" cy="238.86711" gradientTransform="matrix(.43021,-4.861349e-3,1.495916e-2,1.32383,16.98012,-215.5826)" gradientUnits="userSpaceOnUse" id="radialGradient1341" r="23.25138" xlink:href="#linearGradient2213"/>
<radialGradient cx="100.52846" cy="279.50162" gradientTransform="matrix(.45902,.13231,-.33092,1.14804,97.40757,-211.6565)" gradientUnits="userSpaceOnUse" id="radialGradient1344" r="29.08984" xlink:href="#linearGradient2213"/>
</defs>
<path d="m151.84594,85.6229v-8.09325l-46.69183,3.73535c-9.39456,5.77161-18.30554,10.09246-29.26021,20.5444l-24.27975-2.49023c-13.15965,12.6744-13.92638,29.06666-10.58348,46.69182l26.14742,8.71581c.96684,5.54792 11.48211,20.16161 17.43162,29.88277l41.0888,18.67673 43.57904,9.96092c-1.16325,7.31579 20.46739,14.30483 29.88276,28.01509l13.69627-9.96092c0,0 17.7429,1.08948 30.50533,1.24512s19.92185-3.11279 19.92185-3.11279l32.37299-9.96092 23.65719-36.73091-6.22557-46.69182-13.69627-3.73534-7.47069-14.31883-42.33392-17.43161-9.96093-14.31883c-20.37266-2.71206-39.43756-8.69353-62.87832-3.73534l-24.9023,3.11279z" fill="url(#radialGradient1351)" fill-rule="evenodd"/>
<path d="m206.90412,282.80333c-4.90584-1.63779-19.4962-8.77492-23.49294-11.49198-1.15695-.78652-3.34842-1.99359-4.86994-2.68238s-3.62584-2.01846-4.67628-2.95483-2.67888-1.96419-3.61876-2.28403-2.26892-1.103-2.95344-1.74033c-1.69327-1.57659-4.01075-2.23636-8.57638-2.44164l-3.85192-.1732 .31132,2.51454 .31132,2.51454-1.83434-2.21508c-1.00888-1.21829-3.97998-4.43016-6.60243-7.13748s-5.56716-6.14069-6.54378-7.62972-2.06946-3.15033-2.42851-3.6918c-4.15826-6.27087-9.19637-15.46682-10.49645-19.15896-.38876-1.10405-1.23503-2.78264-1.88059-3.7302-1.15403-1.69388-3.70828-10.6924-3.70828-13.06408 0-1.84626 1.3396-1.47903 2.31643.63502l.85293,1.8459 .16949-2.44489c.18217-2.62781-.55776-3.70811-2.53979-3.70811-.53995,0-1.43902-.41944-1.99794-.93208s-2.2345-1.44805-3.72352-2.07867-4.81165-2.34335-7.3836-3.80606c-3.82096-2.17303-12.9671-6.14131-16.85282-7.31202-.6523-.19652-1.09829.30997-1.88108,2.13628-1.33428,3.11295-2.19533,4.01493-4.39934,4.60841-1.10352.29714-2.01023.92571-2.32183,1.60959-.28118.61713-4.05672,4.78731-8.39007,9.26706s-8.26637,8.89442-8.74003,9.81038l-.8612,1.66537-1.0614-1.33113c-1.38511-1.73709-2.24979-1.67961-5.44084.36168-2.32189,1.48529-2.77963,2.05853-3.73411,4.67628-1.19139,3.26749-1.77643,3.70183-2.19528,1.62981-.64534-3.19245-.99525-3.81501-2.21538-3.94156-2.18114-.22622-5.03452,1.86699-6.39006,4.68769-1.3405,2.78942-2.12511,3.05877-2.37602.81569-.08851-.79131-.33256-1.61635-.54232-1.8334-.53314-.55168-4.93258.60163-6.52487,1.71049-1.21649.84716-4.75726,2.1962-10.98475,4.18521-8.36907,2.67301-13.128,4.08976-15.50556,4.61605-1.48903.3296-3.61282,1.12307-4.71953,1.76327s-2.15888,1.16398-2.33814,1.16398c-.78665,0-.21887-1.48948.90467-2.37325 1.76153-1.38563 1.53614-2.30177-.73358-2.9818-1.41017-.4225-2.04802-.92252-2.26142-1.77278-.56364-2.24572.92515-2.98349 2.50276-1.24025 1.10501,1.22103 1.71788,1.22106 8.85766.00046 5.45846-.93317 16.9934-4.42295 20.1845-6.10662 .8122-.42852 1.70752-.7805 1.98961-.78217 .76141-.00449 9.15689-4.86788 10.43944-6.04742 2.22368-2.04507.87109-3.19485-1.53339-1.30348-.91324.71835-1.29698.82358-1.29698.35565 0-1.23921 1.39736-2.66735 3.533-3.61082 1.17027-.51699 2.99165-1.55468 4.04752-2.30596s2.08035-1.36596 2.27663-1.36596 3.98406-2.02523 8.41728-4.5005 9.38946-5.12346 11.01385-5.88486 3.71205-2.05186 4.63924-2.8677c1.52314-1.34022 1.63115-1.60332 1.11932-2.72667-.76131-1.6709-.30997-3.66077 1.94569-8.57805 1.04193-2.27139 1.89443-4.44325 1.89443-4.82635s-.85238-1.95804-1.89419-3.4999-2.16271-3.35714-2.4909-4.03397l-.59672-1.2306 1.19479,1.30496c.65714.71772 1.6022,1.38341 2.10014,1.4793s1.02581.62274 1.17305,1.17077 .6702,1.4329 1.16213,1.96638 1.51221,1.86542 2.26728,2.95989c1.97087,2.85676 9.67942,7.74553 18.9891,12.04289 4.33171,1.99953 8.42961,4.00686 9.10644,4.46073 3.98728,2.67384 11.53259,5.42393 12.77487,4.65616 .28358-.17526.51561-.67578.51561-1.11227s.3041-1.14331.67578-1.57073c.75021-.8627 1.34638-5.0631.83586-5.88913-.17932-.29015-2.30949-.66273-4.7337-.82796-4.64412-.31652-8.34745-1.25633-10.78008-2.7357-1.9211-1.16829-14.52116-14.49962-16.55815-17.51914-2.87214-4.25748-9.41567-10.17708-12.82391-11.60114-2.34879-.98138-5.01996-3.40917-7.81888-7.10646s-3.75652-7.52383-3.22772-12.89034c.20989-2.13.12836-3.78726-.22438-4.56146-.43269-.94965-.3761-1.8281.25842-4.01075 .70007-2.40816.97786-2.79476 2.00813-2.79476 1.55223,0 1.53323-.85178-.03493-1.56628-2.2197-1.01137-1.62087-3.63636 2.21057-9.69008 1.09108-1.72392 2.12266-3.68774 2.29241-4.36405 .5365-2.13758 5.14699-6.22217 9.33311-8.26853 3.39616-1.66019 4.50344-1.94526 8.80696-2.2673 2.70732-.2026 5.80843-.59727 6.89136-.87704 2.62381-.67785 2.71009-.66729 2.68962.32926-.02187,1.06394-1.81821,3.2463-3.30492,4.01512-.60915.315-1.10754.78645-1.10754,1.04766 0,.82244.90266.51857 2.0721-.69754 .6201-.64486 2.235-1.54903 3.58866-2.00927s3.45798-1.48404 4.67628-2.2751 2.83718-1.82509 3.59753-2.29784 3.12539-1.98887 5.25563-3.36918 4.53461-2.78362 5.34302-3.11848c.83351-.34525 1.59365-1.10212 1.75582-1.74826 .33868-1.34942 1.73942-1.9078 6.85672-2.73331 3.51286-.56668 3.83667-.53927 5.81576.49228 1.15267.60081 3.28315,1.53664 4.7344,2.07962 2.42197.90618 2.70988.92274 3.50651.20181 1.75432-1.58765 2.67726-8.98157 1.26718-10.15183-.85918-.71306-9.14872-.4715-25.08821.73105-11.83548.89293-16.32742,1.74436-20.67408,3.91867-1.89513.94799-4.11021,1.86707-4.9224,2.0424-1.44996.31301-1.45747.3045-.4142-.46908 .58438-.43332 3.24247-1.9233 5.90688-3.31107s4.93209-2.60313 5.03933-2.70081 .3668-1.26455.5768-2.59303 .84216-3.36822 1.4048-4.53275c1.26748-2.62337 1.31292-5.36286.11465-6.91149-2.09351-2.70561-4.49385-6.35928-6.44189-9.80554-1.14236-2.02091-3.16774-5.40861-4.50087-7.52822-2.52505-4.01472-2.93194-5.44454-1.6855-5.92285 .4061-.15583.73836-.81578.73836-1.46655 0-1.35255-2.11701-8.07578-3.206-10.18165-.40064-.77476-.85823-2.25183-1.01686-3.28237s-.90709-2.87049-1.66325-4.08878-1.50974-2.94544-1.67463-3.8381c-.3909-2.11622-2.83201-5.63678-6.04219-8.71402-1.41214-1.35366-2.71356-3.04934-2.89203-3.76818-.39615-1.59553-1.96674-3.08738-3.90225-3.70659-1.84869-.59144-2.07201-1.31327-.79989-2.58538 1.28697-1.28697 3.93139-1.3289 5.50208-.08725 2.21989,1.75485 4.72525,4.28889 5.2975,5.35815 .31524.58903.79117,2.22053 1.05763,3.62556 .56094,2.95785 3.52227,8.54312 4.92866,9.29579 .52927.28326 1.43186,1.44902 2.00575,2.59058s1.32928,2.40783 1.67865,2.81392 .8877,1.73514 1.19628,2.95344c1.2195,4.81463 2.0818,5.85485 3.46845,4.18404 .88382-1.06495 2.17655-.97114 1.69584.12306-.90383,2.05728-.79706,4.31152.26838,5.66599 1.31143,1.66721 1.9736,1.68983 3.45042.11783 1.77806-1.89266 2.32056-1.57351 2.32056,1.36518 0,3.21059 1.13742,5.52233 3.36324,6.8356 1.49565.88245 1.84937,1.52791 3.1507,5.7492 .80625,2.61533 1.71397,5.97344 2.01717,7.46246s.8652,3.78492 1.24891,5.10198 .70143,3.19989.70605,4.18404c.00511,1.0901.57892,2.75119 1.46833,4.25058 .80296,1.35366 1.46371,3.17688 1.46832,4.0516 .01145,2.16991 1.00791,2.34511 8.72209,1.53354 3.46479-.36451 8.84697-.65058 11.96039-.63572 6.67225.03186 8.33992.60453 8.97773,3.08291 .47291,1.83762 1.30906,1.85451 2.1929.04432 .38836-.79541 1.84815-1.76588 4.3071-2.86335 2.48589-1.10949 3.71963-1.93307 3.71963-2.48301 0-1.53744 5.46583-5.46948 9.63792-6.93336l9.80556-3.4327c3.24878-1.13561 7.12517-2.25544 8.6142-2.48853 9.68987-1.51678 9.45633-1.50202 10.39026-.65682 .69192.62618 2.4423.87641 7.9241,1.13282l7.036.32911-1.86688.9459c-2.66892,1.35228-2.34874,2.69013.8824,3.68703 1.35366.41765 3.01497,1.11816 3.6918,1.5567s2.64359.93405 4.37058,1.10112c1.80839.17494 3.81613.72165 4.73438,1.28916 1.25476.77548 2.45229.98539 5.62172.98539 2.63531,0 4.52592.25783 5.46984.74595 .92104.47629 3.09988.7877 6.02723.86142 3.31534.0835 4.93489.34493 5.84947.94422 .69561.45581 3.09846,1.07982 5.33965,1.38668 5.24279.71784 9.11134,2.18174 11.2472,4.25606 .93469.90775 1.98599,1.65046 2.33623,1.65046s1.6783.55377 2.95124,1.2306c1.77616.94439 3.04918,1.2306 5.47353,1.2306 2.687,0 3.42485.20229 4.93746,1.35366 1.63176,1.24206 2.09044,1.34288 5.56366,1.22294l3.78528-.13071 1.41792,1.84258c.77986,1.01342 1.52868,2.40129 1.66405,3.08416 .27018,1.36298 3.74012,3.39995 5.85381,3.43637 1.43885.02479 7.12879,1.66094 11.12847,3.2 1.62439.62506 3.79832,1.28557 4.83094,1.46782 1.12654.19881 1.80102.56616 1.68626.91841-.23251.71371-3.86485,1.72377-6.39414,1.77805-1.14509.02457-1.83434.27322-1.81543.65491 .05666,1.14427 4.25061,3.71412 6.98921,4.28265 1.48018.30728 3.88427,1.31885 5.34243,2.24793s3.06205,1.69492 3.5642,1.70184c1.13758.0157 5.64137,2.24154 6.96285,3.44114 .9502.86257 6.94261,4.81147 17.2284,11.35319 10.82255,6.88312 12.60749,8.64771 13.33228,13.18034 .32409,2.02675-.53125,6.00249-1.29137,6.00249-.2603,0-.47327-.78239-.47327-1.73865 0-3.86867-2.95716-8.3919-5.79321-8.8612-3.05863-.50614-4.55382-1.28211-5.31805-2.75996-.40028-.77406-.89059-1.40739-1.08958-1.40739s-1.32273-1.20426-2.49723-2.67613c-2.42012-3.0329-4.53281-4.11139-5.72281-2.92139-.40999.40999-.75473,1.11726-.76608,1.5717-.01273.50986-.3426.23233-.86142-.72475-.46243-.85306-1.94426-2.45899-3.29296-3.56874-2.62855-2.16285-4.78886-2.62485-5.58892-1.19522-.4192.74905-.58624.72471-1.87036-.27251-6.23257-4.8401-7.2298-5.25041-8.53976-3.51375l-.84101,1.11495-1.18317-1.20088c-1.66684-1.69179-5.89349-5.06304-7.22328-5.76141-.61474-.32285-1.33289-.45401-1.59588-.29147-.74766.46208-1.76004-.31427-3.44709-2.64344-.95095-1.3129-1.73196-1.97068-2.0099-1.69275-.55454.55454 1.18121,5.84349 2.33682,7.12042 .44189.48829.85347,1.83278.91463,2.98776s.28019,3.70591.48675,5.66871c.36986,3.51469.04274,4.38241-1.11343,2.95344-.52539-.64936-2.51211-6.56168-3.8034-11.31863-.55927-2.0603-1.13132-3.05783-2.10828-3.67639-.73741-.46689-2.5239-1.79718-3.96997-2.9562-2.17801-1.74565-8.5798-5.23766-19.27549-10.51426-1.67473-.82621-9.70608-3.56594-20.13628-6.8691l-5.12299-1.62241-.86914,1.07335c-.47803.59034-2.04433,1.86419-3.48066,2.83076l-2.61151,1.75741-3.45623-1.08934c-7.95243-2.50646-10.37129-2.47546-11.29275.1447-.97533,2.77331 2.09759,4.38022 9.98177,5.21973 3.88165.41332 4.99223-.01044 4.99223-1.90484 0-1.43365.85947-1.62602 2.59323-.58043 .87495.52766 2.37629,1.21002 3.33633,1.51637 1.3356.42618 1.8558.9315 2.21508,2.15172 .43437,1.47524.87529,1.74911 5.8842,3.65498 6.21325,2.36412 7.1303,2.50367 7.48709,1.13931 .34017-1.30082 1.23667-1.24292 2.93941.18984 .76758.64588 2.21091,1.51498 3.20741,1.93134 1.07583.44951 2.2979,1.52213 3.00847,2.64054 1.52443,2.39939 2.3538,3.09767 6.10567,5.14058 2.66237,1.44968 3.19049,1.58373 4.07811,1.03517 .56081-.34659 1.29772-.45735 1.63757-.24612 1.73847,1.08053 7.22367,5.7014 7.22367,6.0854 0,.24362 1.66131,2.15902 3.6918,4.25644s3.6918,3.98218 3.6918,4.18838 .43619.37491.96932.37491c1.90747,0 4.83987,2.04659 7.09707,4.95322 2.16878,2.79277 2.41425,3.43599 4.45605,11.67637 2.41058,9.72872 2.69336,12.21569 3.03744,26.71295l.24011,10.11633-2.66058,3.91251c-1.46331,2.15187-3.58414,5.76631-4.71294,8.03208-4.91054,9.85656-10.53041,18.34082-14.94417,22.56102-3.8015,3.63479-7.59673,5.47975-12.43354,6.04426-4.35795.50862-10.42584,2.11891-13.07264,3.46921-1.12203.57242-3.40195,1.26008-5.06648,1.52815-3.79943.61188-10.16468.09025-10.16468-.833 0-1.06437-.79564-1.24141-2.23143-.49651-.74218.38504-3.03569.83548-5.09669,1.00096s-5.15054.54243-6.86563.83766c-2.62716.45222-3.23563.41949-3.86291-.20779-.57887-.57886-.62403-.96979-.20295-1.7566 .2979-.55661.3749-1.1056.17112-1.21997-.91902-.51577-3.6079-.92605-7.12725-1.08752-3.7879-.17379-4.86909.17968-5.39737,1.76452-.10017.3005-.83985.55274-1.64373.56051-3.58115.03465-10.91429,1.07938-11.9217,1.69845-1.42157.87359-1.44035,2.81557-.0492,5.08807 .58006.94756 1.20153,2.26615 1.38102,2.9302 .27479,1.0166.94392,1.37964 4.23508,2.29782 9.29714,2.59375 11.41557,3.27802 13.5074,4.36302 1.21829.63192 3.4728,1.38007 5.01003,1.66257s3.86306,1.0598 5.16852,1.72733c2.03875,1.0425 3.31093,1.25912 9.01881,1.53569 3.65488.17709 7.97004.52335 9.58924.76946s4.1411.30679 5.60424.13483c2.34987-.27618 3.09754-.6796 6.40856-3.45785 5.4815-4.59948 8.13884-6.30451 8.33708-5.34934 .1751.84362-1.13682,2.85572-3.65215,5.60136l-1.6449,1.7955 1.33862,1.34855c.73625.74171 1.75444,1.82615 2.26266,2.40988 .85431.98125 1.22571,1.03686 4.9224.73704 3.82868-.31053 4.01926-.27706 4.49061.78888 .30527.69037 1.42271,1.45658 2.94196,2.01726 2.06938.7637 2.76582.81556 4.48576.33401 1.90734-.53402 2.11668-.48942 3.31172.70563 1.01923,1.01923 1.75022,1.27513 3.6362,1.27294 1.29829-.00151 3.22181-.24189 4.27451-.53418 1.89746-.52684 2.35088-.3387 2.89348,1.20063 .08096.22968 1.17293.53321 2.4266.67452 2.50149.28196 6.93378-.8403 9.62306-2.43657 1.39062-.82542 1.83724-.87179 3.44568-.35777 1.0164.32481 2.05842.78531 2.31561,1.02333 .7738.71614 3.90678.48804 5.20667-.37907 .66939-.44652 2.02773-1.57949 3.01853-2.51771s2.01327-1.57496 2.27213-1.41498c1.86659,1.15362-3.09393,7.04322-6.83126,8.11073-1.1906.34007-3.54117,1.06794-5.22348,1.61749-2.24724.73408-4.14085.97085-7.13748.89244-2.2433-.05871-6.07479.04894-8.51441.23921-3.26013.25426-5.41261.14214-8.12196-.42309-2.02745-.42297-4.53063-.76921-5.56262-.76943s-3.80083-.53122-6.153-1.18001c-10.01084-2.7612-13.63782-3.4053-15.57521-2.7659-.99811.3294-1.93521.91286-2.08245,1.29657-.3792.98818.79161,3.57883 1.88087,4.16178 1.20519.645 1.25537,2.17395.05555,1.6925-.47378-.19012-2.74424-.50806-5.04546-.70654s-4.62706-.59547-5.16852-.88222c-2.21446-1.17273-6.14366-2.20778-10.0786-2.65497-3.5494-.40337-4.39577-.35343-5.67368.33477-1.38563.74621-1.63442.74729-3.21188.01399-.94046-.43718-2.46258-1.34689-3.3825-2.02159-.9284-.68091-2.35197-1.22815-3.19956-1.22995-.83984-.00178-2.19151-.44334-3.0037-.98124s-2.11398-.97945-2.89284-.98123-3.02122-.88928-4.983-1.97221-4.00813-1.96896-4.54744-1.96896-1.50882-.40991-2.15448-.91092-2.61373-1.51543-4.37348-2.25428-4.80916-2.101-6.77645-3.027-4.08015-1.68364-4.69526-1.68364c-1.90083,0-4.51919-1.6644-8.91864-5.66925-3.84256-3.49793-4.15886-3.9213-3.4855-4.66535 1.1435-1.26356.93021-1.86493-1.76479-4.9758-2.30892-2.66523-2.48114-3.03711-2.19651-4.74313 .27996-1.67796.07439-2.16182-2.19728-5.17182-4.33425-5.74297-9.97437-7.37254-15.9881-4.61936-3.35008,1.53372-4.9532,1.63598-5.63633.35954-.43964-.82147-1.1139-.93959-5.54195-.97082-6.48977-.04577-8.58124-.35561-13.68175-2.02686-10.97573-3.59634-11.82214-3.61091-10.87146-.18706 .83226,2.99737.66696,5.32418-.45006,6.33507-1.2796,1.15802-1.2416,2.02292.18265,4.15758 .64192.96212 2.83762,4.29664 4.87935,7.41006s4.28536,6.19777 4.98587,6.8541 1.27365,1.46477 1.27365,1.79651 1.18595,1.68706 2.63543,3.01181 2.8967,2.89681 3.21603,3.49346c.96302,1.79944 4.3427,3.21081 8.4235,3.51771 2.95429.22219 3.65331.42515 3.49913,1.01601-.66065,2.53183 1.52079,5.1467 4.72412,5.66274 3.72555.60015 4.05514.72782 3.77355,1.46162-.39972,1.04164 3.77721,3.52702 6.59605,3.92481 3.8511.54346 4.04678.65856 3.73864,2.19926-.2346,1.17303-.02923,1.52958 1.37147,2.38103 .90607.55077 3.02428,1.40421 4.70714,1.89654 2.67079.78134 3.02705,1.02539 2.80256,1.91985-.36989,1.47376 1.48303,3.57876 3.63971,4.13487 1.00073.25804 3.80775.62601 6.23782.81771 4.74241.37411 6.83848,1.34081 7.6866,3.54502 .23626.614 1.00171,1.3339 1.70103,1.59978 1.98002.75281 6.25549.58671 7.50965-.29174 1.88725-1.32188 2.44663-.51442.79076,1.14144-1.32026,1.32027-5.64168,3.12842-7.30544,3.05672-.28927-.01246-2.74103-.76216-5.44835-1.66598zm112.35654-19.84685c.14565-.44293-.56758-.6153-2.54601-.6153-2.55336,0-3.57134.55474-2.13303,1.16239 1.11748.47211 4.4729.07978 4.67904-.54709zm-75.80804-40.07279c2.09956-1.04876 2.4278-1.46194 3.6527-4.59799 .74022-1.89512 1.70697-4.77473 2.14833-6.39912s.98014-3.2857 1.1973-3.6918c.23062-.43131.11283-1.25011-.28326-1.96896-.37294-.67683-.91249-1.78437-1.19901-2.4612-1.99895-4.72212-5.20169-7.74583-8.70167-8.21528-1.58827-.21303-2.1043-.07642-2.65394.70256-.37527.53185-1.43111,1.35288-2.3463,1.82451l-1.66399.8575 .26733,2.94823c.24485,2.70018.1638,3.03801-.96327,4.01514-.67684.5868-1.54528,1.73143-1.92986,2.54362-.8581,1.81221-2.78515,4.58073-4.12358,5.92419-.54892.55099-.99804,1.36582-.99804,1.81074s-.3578,1.16675-.79511,1.60406c-.73199.73199-.72222.87577.12306,1.81113 1.86413,2.06278 3.75434,2.98645 7.94577,3.88278 5.07882,1.08609 7.21194.96416 10.32354-.59011zm15.62894.57053c.16964-.27449-.19858-.48891-.83237-.4847-.91441.00606-.99225.10081-.39823.4847 .91593.59192.86477.59192 1.2306,0zm11.23082-20.25369c.59134-.31026 1.25303-.86531 1.47041-1.23345 .2522-.42712.83343-.55936 1.60617-.36541 1.85783.46628 2.67488-.55905 2.67488-3.35678 0-2.05739-.31265-2.89146-1.96896-5.25269-1.08293-1.54382-1.96896-3.37258-1.96896-4.0639s-.44302-1.76776-.98448-2.39208-.98448-1.31493-.98448-1.53472 .44301-.6367.98448-.92648c1.89971-1.01669.96708-4.32954-1.85129-6.57605-1.36908-1.09128-1.22281-1.90718.41106-2.29288 2.20913-.52151 1.49524-2.07577-1.51321-3.29453-4.61156-1.86821-7.11582-1.26002-4.85092,1.1781l1.15912,1.24776-1.10754.7448c-1.49168,1.00313-1.51573,4.30678-.04945,6.79194 .70681,1.19796 1.10273,2.80065 1.19255,4.82748 .15717,3.54668.94694,7.8038 1.71341,9.23598 .79185,1.47958-.40805,6.01236-1.47681,5.57886-.42042-.17054-1.60046-.42888-2.6223-.5741s-1.97633-.45566-2.12108-.68986c-.37387-.60494-2.66626-.52986-2.66626.08732 0,.28223 1.38442,1.16809 3.0765,1.96857 3.33218,1.57639 7.80322,1.98022 9.87716.89212zm-77.92934-7.61719c1.75975-.15515 4.16912-.70366 5.35415-1.21892s2.55638-.93684 3.04745-.93684 1.02975-.22151 1.19708-.49224 .83184-.49224 1.47672-.49224 1.32049-.23945 1.50137-.53212 .82738-.40701 1.43668-.25408c.74042.18583 1.40089-.04581 1.99155-.69848 .48606-.53709 1.38772-.97652 2.00371-.97652s2.57894-.67529 4.36214-1.50066 3.43588-1.38093 3.67264-1.23461 1.46226-.19037 2.72333-.7482c1.64743-.72873 2.73636-.91385 3.86836-.65759 1.85729.42044 3.43988.56431 9.62838.87533 4.11661.20689 4.74847.36689 5.93382,1.50252 .72963.69903 1.59137,1.27097 1.91497,1.27097 1.20248,0 .51768-1.33699-1.90041-3.7103-1.36883-1.34349-3.25799-3.59733-4.19813-5.00853-1.36847-2.05417-2.32004-2.8521-4.77176-4.0013-4.13524-1.93833-6.36085-2.28604-14.03465-2.19262-7.17101.0873-9.2343.54669-15.20919,3.38631-1.94611.9249-3.98199,1.68164-4.52417,1.68164s-1.09831.18208-1.23585.40461-1.47651.43689-2.97551.47632-3.22698.3979-3.83996.79656-2.33282.87854-3.82184,1.06637-3.15034.58639-3.6918.8857-2.09202.59047-3.44568.64703-3.56874.22401-4.9224.3721c-6.80442.7444-16.18191-.41254-19.15997-2.36384-.67834-.44447-1.58087-.80813-2.0056-.80813-1.13183,0-6.90955-4.01888-7.43049-5.16852-.31152-.68747-1.01993-1.03158-2.34815-1.1406-2.34573-.19254-4.11588,1.25863-4.48954,3.68053l-.50933,3.29899c-.23492,1.52055.0256,1.94008 3.20952,5.16852 1.90585,1.9325 3.68463,3.51364 3.95284,3.51364s1.42664.43269 2.5743.96154c5.05226,2.32809 13.29359,3.67776 28.4215,4.65454 2.97664.19219 11.23891-.06562 16.24392-.50688zm101.08721-5.84756c-.15584-.4061-.13514-1.12455.04599-1.59656 .29294-.76342.43097-.72346 1.24959.36182 1.21447,1.61007 1.72307,1.002.99842-1.1937-.62975-1.90815-2.02734-2.58971-4.19485-2.0457-1.35049.33895-1.69629,1.9351-.5641,2.60378 .36657.2165.92814.89204 1.24792,1.50118 .64438,1.22748 1.66521,1.53714 1.21703.36918zm-164.54512-7.62972c2.47588-6.43224 5.35131-16.55792 5.36517-18.89314 .00463-.78024-.41758-2.10929-.93824-2.95344-2.04645-3.31794-3.16129-11.88751-1.9405-14.91631 .57716-1.43197 1.54633-6.02267 2.38855-11.31394 1.0637-6.68276 3.50231-11.35153 7.38689-14.14232 1.30772-.93951 2.50089-2.1102 2.65151-2.60154s.70447-3.68679 1.23079-7.10099 1.43357-7.31559 2.01611-8.66974c1.42784-3.3191.91652-5.72522-1.26291-5.94292-1.05467-.10535-1.79309.20424-2.6417,1.10754-.64782.68957-1.67994,1.25376-2.2936,1.25376-1.63257,0-1.97831.99086-.68589,1.96573 1.00378.75715 1.08397,1.09953.76235,3.25507-.59844,4.0108-1.4087,5.69728-4.70863,9.80054-4.35345,5.41326-8.56906,10.32934-10.5938,12.35408-2.10709,2.1071-2.15751,3.50428-.22283,6.17502 2.654,3.66374 1.69587,7.98204-2.37955,10.72459-3.02549,2.036-3.12429,2.648-1.28533,7.96104 .69164,1.99825 1.48907,4.62996 1.77206,5.84825s1.30415,5.08944 2.26924,8.60254c1.7136,6.23778 1.73996,6.46847 1.12483,9.8448-.86287,4.73613-1.18764,8.43486-.82386,9.38284 .53777,1.40141 1.93235.53693 2.80934-1.74146zm173.64155-16.39592c.40013-.48212.27999-.8623-.47741-1.51081-.93082-.79699-.94914-.93611-.22827-1.73265 .43109-.47635.7838-1.27062.7838-1.76505 0-.86208-.03962-.86309-.96615-.0246-.60157.54442-1.29812.74569-1.8459.53338-.83496-.32362-.83234-.37588.05147-1.02643 .51218-.377 1.1767-.77878 1.47672-.89284 .32176-.12232.14171-.52698-.43898-.98658-1.23758-.97951-3.87537-1.03717-4.65176-.10169-.32354.38985-1.07056.77749-1.66005.86142-1.44873.20628-1.6975,2.36383-.40721,3.53153 3.43945,3.11265 7.20229,4.51379 8.36374,3.11432zm-29.18709-1.33349c.91254-.34695 1.24358-.76321 1.07653-1.35366-.13268-.46896-.32361-1.15616-.42429-1.52713s.48145-1.05482 1.29365-1.51966c.88577-.50696 1.47672-1.24903 1.47672-1.85435 0-.55505.38501-1.43629.85557-1.95832s1.00531-1.70989 1.18831-2.63969c.24329-1.2361 1.35186-2.68294 4.12392-5.38234 4.29493-4.18233 5.91555-6.90744 4.86247-8.17633-.35892-.43247-2.44886-1.98159-4.64432-3.44247-3.57624-2.37968-4.26411-2.65616-6.60846-2.65616-2.91202,0-6.42273.88341-6.42273,1.61617 0,.26172.6267.35051 1.39268.19732 1.69477-.33896 4.9529.71208 5.80043,1.87115 .74261,1.01558.26964,2.52328-1.53296,4.8866-.67649.88694-1.22999,1.83535-1.22999,2.10759 0,1.09542-3.10313,4.68401-4.45911,5.1567-1.16124.40481-1.44777.79227-1.44777,1.95771 0,.79915-.3467,2.12346-.77045,2.94289s-.92826,2.41432-1.12114,3.54419c-.26784,1.56893-.66731,2.20604-1.69076,2.69657-.73703.35325-1.34005.94413-1.34005,1.31306 0,.71767 3.22957,2.07945 5.66076,2.38691l2.05997.26051c.32079.04057 1.17625-.1517 1.90102-.42726zm-1.99203-3.92915c-.16733-.27073-.06965-.49224.21706-.49224s.5213.22151.5213.49224-.09768.49224-.21707.49224-.35397-.22151-.52129-.49224zm-177.10379-3.28947c.19072-.49702-.39604-2.21956-1.46719-4.3071-1.86342-3.63162-2.81947-6.94154-2.81947-9.7612 0-1.18832.4913-2.23635 1.72284-3.67514 .94756-1.10701 1.72284-2.25913 1.72284-2.56025 0-.3776 1.03117-.45384 3.32262-.24567 5.69499.51737 13.1283.58292 14.02884.1237 .47378-.24159 1.20133-.95803 1.61677-1.59208 1.14198-1.74288.14478-3.43825-2.75643-4.68631-1.30101-.55968-2.68217-1.0176-3.06925-1.0176s-1.23362-.38764-1.88121-.86142c-2.12613-1.55552-3.35189-2.09202-4.77971-2.09202-1.32347,0-1.39913-.11028-1.26633-1.8459 .07767-1.01524.1543-2.13336.17028-2.4847s.60171-1.16953 1.30162-1.81818c.90942-.84282 1.18089-1.46823.95131-2.19158-.18722-.58989-.10204-1.0122.20415-1.0122 .28898,0 .52542-.33226.52542-.73836s-.24734-.73836-.54965-.73836c-.32136,0-.43384-.44286-.27082-1.06624 .16945-.64801-.09831-1.59589-.68265-2.41651-.52882-.74265-.83723-1.67406-.68537-2.0698 .15682-.40868-.07766-.85528-.54275-1.03376-.59097-.22677-.73322-.65543-.51115-1.54024 .21836-.86999.10725-1.22601-.38262-1.22601-.37968,0-.79911.41597-.93206.92438-.17161.65626-1.29479,1.23817-3.87227,2.0062-5.03577,1.50053-8.66014,2.95416-9.30597,3.73234-.30008.36157-1.16697.79388-1.92643.96068s-2.04273,1.12692-2.8517,2.13359c-1.81005,2.25236-3.64162,5.76407-3.22409,6.1816 .16996.16996-.18224.83193-.78266,1.47105-1.01626,1.08175-1.04757,1.30589-.45316,3.2445 .42874,1.3983 1.08323,2.31379 1.99217,2.78658 .74451.38727 1.35366,1.11433 1.35366,1.61569 0,1.599 1.31475,2.27293 3.14385,1.61152 .88128-.31867 1.95816-.57941 2.39307-.57941 1.12445,0 2.83116,2.35456 2.83116,3.90586 0,.72154.25642,1.56831.56983,1.88171 .41897.41897.42511.7442.0232,1.22847-.30064.36225-.598,2.19907-.6608,4.08184-.10814,3.24197-.03029,3.51441 1.47038,5.14604 1.16626,1.26804 1.392,1.76355.85513,1.87703-.40119.0848-1.16949-.08133-1.70735-.36918-1.47131-.78742-4.4684-.6558-4.80096.21084-.15496.40382.18425,1.52402.75381,2.48934s1.03555,2.05103 1.03555,2.41268c0,1.20535 1.30508,1.35826 4.239.49669 .7238-.21255 1.45565.08048 2.41002.96496 1.57252,1.45736 3.0826,1.64564 3.54451.44193zm82.10147-3.1743c6.7224.12937 12.55583-1.6191 12.54967-3.76155-.00635-2.20759-5.36553-5.89669-14.76655-10.16487-10.49468-4.76471-14.04369-5.63442-19.10013-4.68061-2.74549.51788-3.64281.95236-5.38058,2.6053-4.03484,3.83786-3.88656,7.34247.48547,11.474 1.42153,1.34335 3.17488,2.82854 3.89634,3.30044 1.69323,1.10752 8.27118,1.79149 13.70158,1.42466 2.30122-.15545 6.17761-.24427 8.6142-.19737zm136.87946-4.80152c-.37983-3.72893-1.13287-6.15773-2.99345-9.65491-1.53276-2.88099-1.9466-3.37341-2.63206-3.13187-.29015.10224.13605,1.5447.9981,3.37799 2.06773,4.3974 3.1776,7.71311 3.59315,10.73446 .52931,3.84858 1.44213,2.67857 1.03426-1.32567zm-227.2055-1.53295c0-.27073-.22151-.49224-.49224-.49224s-.49224.22151-.49224.49224 .22151.49224.49224.49224 .49224-.22151.49224-.49224zm158.72261-5.1024c2.99168-1.45266 6.27008-2.99963 7.28533-3.43772 2.37908-1.02658 2.46499-2.02262.13677-1.58585-1.13809.21351-2.20655.06341-3.19794-.44925-.81884-.42345-3.31697-1.01512-5.5514-1.31485-4.87311-.65367-9.07085-2.74437-13.16905-6.55887-1.48903-1.38595-3.87024-3.47099-5.29158-4.63344s-2.58426-2.43478-2.58426-2.82743c0-.9436-4.7739-5.72917-6.71819-6.73459-.84183-.43533-1.66136-1.13229-1.82119-1.5488s-1.12809-1.13928-2.15167-1.60615-3.16798-1.71565-4.76531-2.77508-3.5909-2.09436-4.43016-2.29984-3.07648-.96964-4.9716-1.69812-4.43531-1.64099-5.64485-2.0278-2.41677-.92089-2.68271-1.18683-1.07664-.48354-1.80154-.48354-1.57017-.30385-1.87839-.67523-1.60901-.82224-2.89065-1.00191c-4.98118-.69831-5.69224-.83634-6.47993-1.2579-.92982-.49763-8.51974-1.69304-10.37141-1.63349-4.16049.13379-9.41598,1.68911-11.20599,3.31632-.07183.06529-.47674,1.42591-.89982,3.0236-.63949,2.41496-.67022,3.36151-.18218,5.61221 .32288,1.48903.79097,3.09496 1.0402,3.56874 .48107.91452 1.89523,1.19459 1.89523.37535 0-.26733.94141-1.09498 2.09202-1.83922 4.71802-3.0517 16.45496-3.02612 22.40123.04881 .85062.43987 2.18777.79976 2.97145.79976 .79973,0 1.81576.43193 2.31582.98448 .49002.54147 1.13349.98665 1.42995.98929 .66555.00594 4.78371,2.04469 7.43037,3.67852 1.08292.66851 2.34875,1.35531 2.81294,1.52624s1.28315,1.05511 1.81992,1.96486c.5766.97728 1.53139,1.79351 2.33343,1.9948 .74662.18739 2.21283,1.16259 3.25824,2.16712s3.10966,2.41836 4.58722,3.14185c2.21182,1.08302 2.92356,1.76543 4.02828,3.8623 2.00516,3.80598 7.01057,8.22178 10.23766,9.03173 .7795.19564 2.80222.98367 4.49493,1.75118s3.91316,1.41755 4.93435,1.44454 2.41048.22641 3.08731.44317c2.10086.67282 2.50885.56454 8.09717-2.14896zm22.66286-7.21163c-.17004-.27514-.51538-.37283-.76741-.21706-.68275.42196-.55545.71733.30919.71733 .42207,0 .62827-.22512.45822-.50027zm-6.56652-4.3966c1.19233-.52742 2.68811-1.51271 3.32395-2.18954s1.76106-1.36347 2.50045-1.52587 1.6339-.83626 1.98777-1.49748c.54341-1.01536.52642-1.33681-.10929-2.06839-1.24279-1.43022-1.52149-5.36245-.49073-6.92371 .48153-.72935 1.1229-1.76911 1.42528-2.31058s.84726-.89604 1.21087-.78794 1.32563.29284 2.13783.41054 2.17472.52766 3.02783.91101 1.71073.69699 1.90583.69699c.38356,0 8.96755,4.27774 12.48439,6.22145 1.18724.65618 2.26967,1.08199 2.40541.94625 .74575-.74576-4.9135-4.78532-10.81104-7.71689-11.53274-5.73275-14.28209-6.92244-21.6075-9.34993-8.28712-2.74618-12.00797-3.36145-13.49364-2.23127-.88298.6717-.91312.86619-.29233,1.88643 .38068.62564.86126,1.46978 1.06794,1.87588 2.06268,4.0528 2.41328,5.24971 2.71724,9.27624 .3199,4.23759.28475,4.45967-.96513,6.09835-2.05905,2.69955-1.6548,4.80725.922,4.80725 1.33364,0 1.80334.30811 2.64539,1.73528 1.65417,2.8036 4.29809,3.37678 8.00748,1.73593zm-104.70087-15.95213c-.1797-.71599-.63498-1.3018-1.01173-1.3018-.82084,0-.888,1.16212-.14715,2.54641 .7288,1.36178 1.58284.44457 1.15888-1.24461zm57.65809-25.74911c4.62235-2.18963 5.06642-2.30101 9.54152-2.39321 5.21109-.10735 15.89012-1.47617 17.26748-2.21331 1.84053-.98503 2.46926-1.96619 1.9189-2.99455-.28519-.53289-.38063-1.40337-.21209-1.93439 .47639-1.50099-1.86248-2.21811-3.698-1.13384-1.33695.78975-1.51418.77207-4.27867-.42686-3.97967-1.72593-6.94572-2.19932-7.34014-1.1715-.42189,1.09946-.66004,1.02662-4.02009-1.2296-3.05779-2.05325-5.85981-2.81295-8.20459-2.22444-1.05032.26362-1.26033.60184-1.26033,2.02979 0,.9424-.14316,1.71346-.31814,1.71346s-1.33913-.95503-2.58703-2.12229c-2.38465-2.23056-2.95044-2.41695-11.61591-3.82667-2.8213-.45897-4.38225-.41605-8.6142.23691-8.97385,1.38459-11.50545,2.14753-13.31254,4.01197-1.15443,1.19107-1.4179,1.72364-.92066,1.86095 4.08777,1.12879 9.64935,3.30397 13.98708,5.47046 1.35366.67609 3.05065,1.23618 3.7711,1.24465 1.23845.01455 3.85862,2.38184 3.85862,3.4862 0,.7385 2.73517,1.91238 6.76262,2.90238 2.10129.51652 3.95701.95517 4.12381.97478s2.48486-.99779 5.15126-2.26087zm-128.43516,88.31101c-1.76084-1.4189-3.3161-3.02283-3.45615-3.5643s-.30718-2.53503-.37141-4.43016c-.13348-3.93821.41243-4.46889 2.72549-2.64944 1.14702.90226 1.32943,1.34685 1.10925,2.70364-.28199,1.73768 1.08884,4.12984 2.36661,4.12984 1.21393,0 3.10548,2.77341 2.83973,4.16363-.48535,2.53894-1.72895,2.45469-5.21352-.35321zm-14.40518-13.72983c-1.3257-1.93616-2.57112-3.7636-2.76761-4.06098s-.67033-1.33965-1.053-2.31616l-.69575-1.77547-3.80439.24415c-5.11463.32823-10.70058-1.30908-12.18338-3.57112-.53892-.82214-1.53883-1.91643-2.22201-2.43175-1.19476-.90121-1.26695-.90303-1.89238-.04771-.46984.64256-.8252.74787-1.28092.37963-.34688-.2803-1.62747-.66954-2.84577-.86499s-2.60272-.69784-3.0765-1.11643c-1.02504-.90561-1.14395-2.57744-.18333-2.57744 .37295,0 .92453-.29695 1.22574-.65988 .42592-.5132.12343-1.00079-1.36079-2.19354-1.04964-.84352-2.14388-2.20905-2.43164-3.03452-.5012-1.43774-.44291-1.54182 1.38629-2.475l1.90949-.97415-.24155-2.59199c-.27113-2.90944.89433-5.9141 2.40311-6.19539 .68691-.12806.8792.22067.94918,1.7214 .04827,1.03509.04487,2.32501-.00754,2.86647-.24627,2.54415-.55578,5.09874-.84258,6.95431-.27195,1.7595-.16122,2.13895.82592,2.83038 1.82116,1.27559 2.88988,1.03551 2.88988-.6492 0-.79621.20431-1.57394.45402-1.72827 .65231-.40314 1.87461-6.25511 2.26683-10.8529 .43933-5.14996 1.24693-8.71138 3.40447-15.01332 .97323-2.84268 1.90721-6.33766 2.07553-7.76662s.49631-2.7157.72887-2.85943c.74839-.46253.45069-1.60477-.49663-1.90543-1.81002-.57448-3.42074.53773-4.0369,2.78751-.93431,3.41143-4.37614,10.32462-5.0329,10.10899-1.09766-.3604-.972-3.68795.21931-5.80759 1.26637-2.2532 1.04574-3.00461-1.36488-4.64835-.79407-.54146-1.54857-1.20164-1.67665-1.46706-.31284-.6483 3.84481-.33054 4.98404.38092 .72314.45161 1.10318.31124 2.11587-.78147 1.06777-1.15214 1.11498-1.33195.34973-1.33195-.48658,0-1.25307-.40706-1.70332-.90458-.76497-.84529-.75937-.95821.08553-1.72284 1.18822-1.07532 2.41316-1.03259 4.76456.16622 2.40827,1.2278 2.29594,1.23398 4.47699-.24612 1.08196-.73424 2.53023-1.23763 3.5906-1.24805 .97747-.00959 2.33098-.334 3.00781-.72092 2.55007-1.45775 8.82715-.51276 12.3461,1.85865 .92176.62118 1.74358,1.48069 1.82627,1.91004 .08398.43608-1.40666,2.38383-3.3772,4.41285-3.77131,3.88322-8.17699,10.11091-8.63255,12.20262-.15266.70091-.59094,2.10953-.97397,3.13026s-.69641,2.7484-.69641,3.8393-.31092,2.5847-.69095,3.31958-.91224,3.54811-1.18272,6.25162c-.5925,5.9223-.20461,7.6996 5.17364,23.7053 .57449,1.70967 1.64121,3.6345 5.88638,10.62151 .12337.20305.13298.36918.02135.36918s-1.28761-1.58413-2.61331-3.52029zm26.71384-69.16715c-1.10488-1.10487.71404-5.07263 3.21659-7.01664 1.1457-.88999 7.54725-2.56543 8.01497-2.09771 .13972.13972.25404.75833.25404,1.37468 0,1.48847-1.76111,2.65319-4.01173,2.65319-1.85215,0-3.43459,1.31692-4.09941,3.41157-.15173.47805-.8358,1.12431-1.52016,1.43612-1.45996.6652-1.43154.66155-1.8543.23878z" fill="#0a0a08"/>
<path d="m94.18283,139.13642c11.19353,1.28572 13.12036-8.54862 17.76893-15.11686 16.2807-13.12268 57.12246-31.33077 28.90766-42.16806-9.5038-3.65041-17.91281,3.42672-29.70329,11.13874-10.54202,6.89541-8.75186,10.0116-16.17768,14.85165s-8.75186.79562-13.5256,4.50853-6.29869,5.43676-8.22145,12.99519-2.18797,11.66916.53041,17.23852 10.34311,5.03895 10.34311,5.03895-.1326,5.63568 3.4477,10.34311 6.6302,7.09431 10.87353,8.48666-7.29255-25.96121-4.24332-27.31642z" fill="url(#radialGradient1347)" fill-rule="evenodd"/>
<path d="m57.33872,125.91596c3.20298-10.23696 15.57525-23.11167 15.57525-23.11167s-1.38168-6.09193-6.53156-6.02913-14.06797,6.28034-14.06797,6.28034-8.47291,5.15173-10.48262,15.5143 2.44379,25.93597 2.44379,25.93597 6.09193,6.46875 10.04855,6.28034 5.77791-7.03398 5.77791-7.03398-5.96633-7.59922-2.76335-17.83617z" fill="url(#radialGradient1344)" fill-rule="evenodd"/>
<path d="m166.13916,78.88047c0,0-8.67933,0-12.58979,6.48565s-3.05206,19.45695-3.05206,19.45695l.76301,15.64185-4.95961,8.7747c0,0 5.72262,2.57518 9.1562,1.14452s4.86424-4.38734 4.57811-6.86715-5.72263-3.05207-5.72263-3.05207l3.43358-16.40487c0,0-1.33528-8.87007 1.52603-12.20827s9.91923-1.14453 9.91923-1.14453l-3.05207-11.82677z" fill="url(#radialGradient1341)" fill-rule="evenodd"/>
<path d="m175.18692,203.59118c-.98186,4.30892 27.52477,13.25016 49.22816,16.02336s36.60352-.62165 37.58538-4.93056-11.95458-9.53191-33.65797-12.30511-52.17372-3.0966-53.15557,1.21231z" fill="url(#radialGradient1338)" fill-rule="evenodd"/>
<path d="m167.27112,73.91666c-.22503-.61476 10.66631,5.79401 43.23585,20.37552 11.9514,5.35068 18.80271,1.53186 41.52471,8.17875 21.82099,6.38333 29.93854,12.32319 43.72929,22.57307s16.34023,13.53087 16.34023,13.53087 6.40968,24.06763 4.67773,31.32262c-3.39104,14.20477 4.14535-22.62512-23.48108-42.52827-13.32475-9.59966-18.92855-12.52156-40.23588-18.54725s-29.19762-3.74555-51.2075-8.82676c-21.80429-5.03375-39.26924-15.75979-39.26924-16.16042l4.68589-9.91812z" fill="url(#linearGradient1335)" fill-rule="evenodd"/>
<path d="m192.09375,152.65142c4.36767-5.11312 3.67457.66544.03182,3.81447-8.0139,6.92772-15.59609,8.97017-23.46266,11.3684-14.06318,4.28733-27.53153-2.45188-33.73543,6.07173s-.78445,24.41511 7.87673,30.45668c11.47976,8.00766 38.59016,8.13961 38.59016,8.13961s15.91433,5.77231 35.60494,8.19992 23.79057,3.61444 43.15751,1.51051 34.31022-9.92622 34.31022-9.92622l-2.80525,5.82626c0,0-13.64856,5.88021-32.7997,7.76835s-14.28537,8.13782-43.80486-.21579c-31.07341-8.79334-59.4266-8.73042-77.03615-21.14717-4.23347-2.98508-11.16701-22.4419-4.09997-32.58392s17.69458-2.85918 32.36813-7.98414 22.12712-6.99365 25.80451-11.29869z" fill="url(#radialGradient1332)" fill-rule="evenodd"/>
</svg>
